<?xml version="1.0" encoding="utf-8"?>
<!-- Generator: Adobe Illustrator 28.2.0, SVG Export Plug-In . SVG Version: 6.00 Build 0)  -->
<svg version="1.1" id="Layer_1" xmlns="http://www.w3.org/2000/svg" xmlns:xlink="http://www.w3.org/1999/xlink" x="0px" y="0px"
	 viewBox="0 0 366.6 74.8" style="enable-background:new 0 0 366.6 74.8;" xml:space="preserve">
<style type="text/css">
	.st0{fill:#695DFB;}
	.st1{fill:#1D179B;}
</style>
<g>
	<rect x="0.3" y="1.8" class="st0" width="17.3" height="16.2"/>
	<path class="st1" d="M72.1,73.9V1.8h-8.7L35.6,32.2c-4.5,4.9-9.5,11-13.3,15.6C14.9,56.5,7.4,65.2,0,73.9c6.4,0,12.7,0,19.1,0
		l24.1-26.6c3.4-3.7,8.4-9.5,11.6-13.6l0.2,0.1c-0.2,4.2-0.3,8.8-0.3,13.3v26.8H72.1z"/>
	<path class="st1" d="M82.5,73.1V1.8h17.3v71.3H82.5z"/>
	<path class="st1" d="M130.8,74.8c-8.8,0-16.4-2.2-21.6-6l-1.6-16.7c6.9,5.5,14.4,8.2,22.4,8.2c6.4,0,10-2.7,10-6.9
		c0-4.2-2.5-6.4-11.3-9.5c-12.4-4.4-19-12.3-19-22.1c0-12.1,9.1-21.7,24.7-21.7c8.8,0,14.3,2.2,17.4,4.2l-1.3,14.5
		c-3.4-2.2-9.2-4.5-14.8-4.5c-6.2,0-9.1,2.7-9.1,6.2c0,3.4,2.5,5.5,11,8.3c11.4,3.8,19.8,11.7,19.8,22.9
		C157.4,65.6,148.3,74.8,130.8,74.8z"/>
	<path class="st1" d="M165.2,73.1V1.8h17.3v71.3H165.2z"/>
	<path class="st1" d="M275.7,73.1V44.8h-27.6v28.3h-17.3V1.8h17.3V30h27.6V1.8h17.2v71.3H275.7z"/>
	<path class="st1" d="M347.3,73.1L328,45.1h-6.2v28.1h-16.7V1.8h26.6c12.2,0,23,8.2,23,21.6c0,8.4-4.9,15.1-11,17.9l22.7,31.9H347.3
		z M329.3,15.4h-7.4v16h7.4c4.5,0,8.9-2.5,8.9-8.1C338.2,18,333.7,15.4,329.3,15.4z"/>
</g>
</svg>
