<?xml version="1.0" encoding="UTF-8"?>
<svg id="Layer_1" data-name="Layer 1" xmlns="http://www.w3.org/2000/svg" viewBox="0 0 486.74 759.77">
  <defs>
    <style>
      .cls-1 {
        font-family: Montserrat-Regular, Montserrat;
        font-size: 183.89px;
        font-variation-settings: 'wght' 400;
      }

      .cls-1, .cls-2 {
        fill: #036fb3;
      }
    </style>
  </defs>
  <path class="cls-2" d="M185.53,81.25c-5.55,1.95-133.42,83.55-102.76,150.38,15.82,34.48,87.36,15.08,114.07,28.59-21.84-9.86-79.95-38.76-99-80.28-30.52-66.51,82.17-96.75,87.69-98.7Z"/>
  <path class="cls-2" d="M304.05,199.6C304.62,192.03,274.44-1.58,179.47,0c-49,.82-63.17,95.52-93.01,120.1,22.99-20.73,87.33-74.47,146.34-75.46,94.52-1.59,71.82,147.41,71.25,154.95Z"/>
  <path class="cls-2" d="M24.83,289.18c10.35,6.42,307.95,106.76,375.95-29.46,35.08-70.27-89.07-160.47-101.95-221.1,12.46,48.03,41.27,179.27-.98,263.89-67.67,135.56-262.73-6.95-273.03-13.33Z"/>
  <text class="cls-1" transform="translate(0 532.86)"><tspan x="0" y="0">NISSI</tspan></text>
  <g>
    <path class="cls-2" d="M142.58,700.23v-145.23h15.35v145.23h-15.35ZM156.28,633.22v-13.49h93.98v13.49h-93.98ZM248.81,700.23v-145.23h15.15v145.23h-15.15Z"/>
    <path class="cls-2" d="M285.83,759.77v-145.23h54.36c18.39,0,32.88,4.39,43.46,13.17,10.58,8.78,15.87,20.99,15.87,36.62,0,10.24-2.39,19.05-7.16,26.45-4.77,7.4-11.58,13.07-20.43,17.01-8.85,3.94-19.43,5.91-31.74,5.91h-45.85l6.85-7.05v53.11h-15.35ZM301.19,707.91l-6.85-7.26h45.44c14.52,0,25.55-3.18,33.09-9.54,7.54-6.36,11.31-15.28,11.31-26.76s-3.77-20.61-11.31-26.97c-7.54-6.36-18.57-9.54-33.09-9.54h-45.44l6.85-7.26v87.34ZM385,759.77l-37.34-52.7h16.6l37.55,52.7h-16.8Z"/>
  </g>
</svg>